<svg width="45mm" height="45mm" version="1.1" viewBox="0 0 45 44.999999" xmlns="http://www.w3.org/2000/svg"><g stroke-width=".19601"><path d="m42.5 22.492a19.999 19.999 0 0 1 -19.999 19.999 19.999 19.999 0 0 1 -19.999 -19.999 19.999 19.999 0 0 1 19.999 -19.999 19.999 19.999 0 0 1 19.999 19.999z" fill="#edf2f7"/><path d="m35.065 29.355a12.564 6.3723 0 0 1 -12.564 6.3723 12.564 6.3723 0 0 1 -12.564 -6.3723 12.564 6.3723 0 0 1 12.564 -6.3723 12.564 6.3723 0 0 1 12.564 6.3723zm-6.424-13.725a6.1406 6.3723 0 0 1 -6.1406 6.3723 6.1406 6.3723 0 0 1 -6.1406 -6.3723 6.1406 6.3723 0 0 1 6.1406 -6.3723 6.1406 6.3723 0 0 1 6.1406 6.3723z" fill="#9ec1c6"/></g></svg>
